<svg xmlns="http://www.w3.org/2000/svg" width="32" height="32" fill="#000000" viewBox="0 0 256 256">
    <path d="M200,164a36.07,36.07,0,0,0-33.94,24H72a28,28,0,0,1,0-56h96a44,44,0,0,0,0-88H72a12,12,0,0,0,0,24h96a20,20,0,0,1,0,40H72a52,52,0,0,0,0,104h94.06A36,36,0,1,0,200,164Zm0,48a12,12,0,1,1,12-12A12,12,0,0,1,200,212Z"/>
    <style>
        path {
        fill: black;
        }
        
        @media (prefers-color-scheme: dark) {
        path {
        fill: white;
        }
        }
    </style>
</svg>